# xmcd
#
# Track frame offsets:
#	150
#	11054
#	30436
#	49716
#	66991
#	82109
#	98584
#	117636
#	133691
#	152912
#	170549
#	188531
#	205227
#	222534
#	240945
#	270670
#
# Disc length: 3624 seconds
#
# Revision: 1
# Processed by: cddbd v1.5.1PL2 Copyright (c) Steve Scherf et al.
# Submitted via: audiograbber 1.83.01
#
DISCID=df0e2610
DTITLE=Various Artist - CB60315
DYEAR=1900
DGENRE=Karaoke
TTITLE0=Byrd, Tracy - Drinkin' Bone
TTITLE1=Wills, Mark - And The Crowd Goes Wild
TTITLE2=Dailey, Amy - I Think You're Beautiful
TTITLE3=Strait, George - Cowboys Like Us
TTITLE4=Sawyer Brown - I'll Be Around
TTITLE5=McEntire, Reba - I'm Gonna Take That Mountain
TTITLE6=Keith, Toby - I Love This Bar
TTITLE7=Wolf, Brad - Strickly Business
TTITLE8=Wynonna - Heaven Help Me
TTITLE9=Brooks and Dunn - You Can't Take The Honky Tonk Out Of The Girl
TTITLE10=Paisley, Brad - Little Moments
TTITLE11=Dean, Roxie - Everyday Girl
TTITLE12=Worley, Daryl - I Need A Breather
TTITLE13=Lynne, Shelby - Telephone
TTITLE14=Lonestar - Walking In Memphis
TTITLE15=None - Data Track
EXTD=Songs no performed by original artists
EXTT0=
EXTT1=
EXTT2=
EXTT3=
EXTT4=
EXTT5=
EXTT6=
EXTT7=
EXTT8=
EXTT9=
EXTT10=
EXTT11=
EXTT12=
EXTT13=
EXTT14=
EXTT15=
PLAYORDER=
